<?xml version="1.0" standalone="no"?>
<!DOCTYPE svg PUBLIC "-//W3C//DTD SVG 20010904//EN"
 "http://www.w3.org/TR/2001/REC-SVG-20010904/DTD/svg10.dtd">
<svg version="1.0" xmlns="http://www.w3.org/2000/svg"
 width="300.000000pt" height="300.000000pt" viewBox="0 0 300.000000 300.000000"
 preserveAspectRatio="xMidYMid meet">
<metadata>
Created by potrace 1.10, written by Peter Selinger 2001-2011
</metadata>
<g transform="translate(0.000000,300.000000) scale(0.050000,-0.050000)"
fill="#ff2969" stroke="none">
<path d="M949 4975 c-5 -14 -7 -911 -4 -1995 l5 -1970 1990 0 1990 0 6 102 c4
69 -3 109 -23 125 -44 37 -93 6 -93 -59 l0 -58 -1880 0 -1880 0 0 71 c0 70 1
71 70 58 88 -17 162 1 178 43 22 58 -26 88 -140 88 -107 0 -108 1 -108 60 0
55 6 60 69 60 51 0 72 10 81 40 18 58 -4 80 -81 80 -65 0 -69 4 -69 69 l0 68
108 -11 c97 -10 110 -7 131 33 37 69 -4 101 -131 101 -107 0 -108 1 -108 60 0
55 6 60 69 60 51 0 72 10 81 40 18 58 -4 80 -81 80 -65 0 -69 4 -69 70 l0 70
118 0 c90 0 121 8 130 33 22 57 -26 87 -140 87 -107 0 -108 1 -108 60 0 53 7
60 58 60 65 0 112 45 95 90 -7 19 -38 30 -82 30 -68 0 -71 3 -71 70 l0 70 118
0 c90 0 121 8 130 33 22 57 -26 87 -140 87 -107 0 -108 1 -108 60 0 53 7 60
58 60 65 0 112 45 95 90 -7 19 -38 30 -82 30 -68 0 -71 3 -71 73 l0 72 90 -10
c102 -11 158 18 147 76 -6 32 -27 40 -122 45 -142 7 -184 115 -50 128 54 5 65
14 65 56 0 42 -11 51 -65 56 -60 6 -65 12 -65 78 l0 71 90 -10 c102 -11 158
18 147 76 -6 32 -27 40 -122 45 -142 7 -184 115 -50 128 54 5 65 14 65 56 0
42 -11 51 -65 56 l-65 7 0 378 0 379 58 0 c65 0 96 49 60 93 -29 35 -215 37
-229 2z"/>
<path d="M1310 4960 c-21 -67 7 -80 179 -80 174 0 223 27 169 93 -40 48 -332
37 -348 -13z"/>
<path d="M1803 4973 c-58 -69 -7 -95 174 -89 170 6 173 7 173 56 0 61 -300 90
-347 33z"/>
<path d="M2282 4963 c-35 -65 16 -85 191 -79 153 6 157 7 157 56 0 69 -313 90
-348 23z"/>
<path d="M2768 4971 c-30 -76 4 -93 177 -87 161 6 165 7 165 56 0 63 -319 91
-342 31z"/>
<path d="M3248 4971 c-30 -76 4 -93 177 -87 161 6 165 7 165 56 0 63 -319 91
-342 31z"/>
<path d="M3727 4970 c-28 -73 6 -90 180 -90 176 0 226 27 171 93 -34 40 -335
38 -351 -3z"/>
<path d="M4210 4960 c-21 -67 7 -80 179 -80 174 0 223 27 169 93 -40 48 -332
37 -348 -13z"/>
<path d="M4703 4973 c-37 -44 -6 -93 59 -93 51 0 58 -7 58 -58 0 -65 49 -96
93 -59 20 16 27 56 23 125 l-6 102 -102 6 c-69 4 -109 -3 -125 -23z"/>
<path d="M4833 4627 c-31 -31 -14 -342 20 -355 64 -25 87 26 87 188 0 161 -44
229 -107 167z"/>
<path d="M3704 4531 l-94 -89 49 -35 c26 -19 166 -129 310 -244 143 -115 272
-218 285 -228 37 -28 146 135 146 219 0 103 -24 133 -242 307 -252 201 -308
209 -454 70z"/>
<path d="M2894 3568 l-637 -768 97 -149 c53 -81 102 -147 109 -145 7 2 316
367 686 810 l674 806 -47 37 c-25 20 -86 69 -136 109 -49 39 -94 71 -100 70
-5 0 -296 -347 -646 -770z"/>
<path d="M1771 4169 c-24 -24 -26 -41 -10 -72 30 -54 165 -46 176 12 14 76
-106 119 -166 60z"/>
<path d="M2029 4171 c-51 -38 -18 -98 59 -107 93 -11 138 47 81 105 -40 39
-90 40 -140 2z"/>
<path d="M2283 4182 c-14 -9 -23 -38 -20 -64 9 -65 162 -73 174 -9 13 66 -89
115 -154 73z"/>
<path d="M2529 4171 c-51 -38 -18 -98 59 -107 93 -11 138 47 81 105 -40 39
-90 40 -140 2z"/>
<path d="M2783 4182 c-14 -9 -23 -38 -20 -64 9 -65 162 -73 174 -9 13 66 -89
115 -154 73z"/>
<path d="M3029 4171 c-53 -39 -16 -99 67 -107 78 -8 122 55 73 105 -40 39 -90
40 -140 2z"/>
<path d="M4844 4143 c-55 -35 -23 -353 36 -353 49 0 50 4 56 157 7 183 -20
241 -92 196z"/>
<path d="M3370 3386 c-297 -358 -602 -723 -677 -810 -75 -88 -133 -162 -130
-166 29 -27 344 -131 357 -117 9 9 300 358 646 775 l630 758 -137 107 c-75 59
-139 106 -143 105 -3 -1 -249 -294 -546 -652z"/>
<path d="M1760 3959 c-38 -71 -9 -143 56 -135 49 5 54 14 54 86 0 95 -69 126
-110 49z"/>
<path d="M1771 3729 c-63 -64 -8 -200 63 -157 43 27 58 119 25 159 -31 37 -49
36 -88 -2z"/>
<path d="M4841 3651 c-50 -60 -18 -341 39 -341 69 0 90 313 23 348 -29 16 -45
14 -62 -7z"/>
<path d="M1760 3459 c-38 -71 -9 -143 56 -135 49 5 54 14 54 86 0 95 -69 126
-110 49z"/>
<path d="M4012 3408 c-20 -53 -13 -122 15 -146 66 -54 139 52 94 136 -26 49
-92 56 -109 10z"/>
<path d="M1771 3229 c-63 -64 -8 -200 63 -157 43 27 58 119 25 159 -31 37 -49
36 -88 -2z"/>
<path d="M4008 3152 c-24 -62 1 -142 46 -148 54 -8 94 60 77 128 -13 54 -104
69 -123 20z"/>
<path d="M4829 3155 c-36 -93 1 -325 51 -325 74 0 79 336 5 346 -25 4 -50 -6
-56 -21z"/>
<path d="M1760 2959 c-38 -71 -9 -143 56 -135 49 5 54 14 54 86 0 95 -69 126
-110 49z"/>
<path d="M4025 2927 c-34 -14 -32 -136 2 -165 66 -54 139 52 94 136 -22 41
-47 49 -96 29z"/>
<path d="M1771 2729 c-63 -64 -8 -200 63 -157 43 27 58 119 25 159 -31 37 -49
36 -88 -2z"/>
<path d="M4829 2675 c-36 -93 1 -325 51 -325 74 0 79 336 5 346 -25 4 -50 -6
-56 -21z"/>
<path d="M4008 2652 c-24 -62 1 -142 46 -148 54 -8 94 60 77 128 -13 54 -104
69 -123 20z"/>
<path d="M2160 2576 c-42 -160 -179 -649 -190 -680 -7 -17 2 -45 20 -63 28
-28 790 314 790 355 0 4 -80 36 -179 72 l-179 64 -104 159 c-129 196 -131 197
-158 93z"/>
<path d="M1760 2459 c-38 -71 -9 -143 56 -135 49 5 54 14 54 86 0 95 -69 126
-110 49z"/>
<path d="M4025 2427 c-34 -14 -32 -136 2 -165 66 -54 139 52 94 136 -22 41
-47 49 -96 29z"/>
<path d="M1771 2229 c-63 -64 -8 -200 63 -157 43 27 58 119 25 159 -31 37 -49
36 -88 -2z"/>
<path d="M4834 2208 c-32 -32 -16 -343 19 -356 67 -26 89 25 83 196 -6 160
-43 218 -102 160z"/>
<path d="M4008 2152 c-24 -62 1 -142 46 -148 54 -8 94 60 77 128 -13 54 -104
69 -123 20z"/>
<path d="M1764 1976 c-53 -53 -1 -189 62 -165 43 17 41 189 -2 189 -20 0 -47
-11 -60 -24z"/>
<path d="M2505 1905 c-68 -34 -74 -59 -22 -92 73 -46 186 37 135 100 -28 33
-31 33 -113 -8z"/>
<path d="M2702 1913 c-54 -66 52 -139 136 -94 47 25 54 61 18 97 -32 32 -126
30 -154 -3z"/>
<path d="M2954 1928 c-55 -56 31 -141 119 -119 84 21 58 119 -34 127 -39 3
-77 -1 -85 -8z"/>
<path d="M3204 1916 c-32 -32 -30 -47 7 -85 64 -63 185 -14 160 66 -16 49
-125 61 -167 19z"/>
<path d="M3454 1928 c-55 -56 31 -141 119 -119 84 21 58 119 -34 127 -39 3
-77 -1 -85 -8z"/>
<path d="M3702 1913 c-54 -66 52 -139 136 -94 47 25 54 61 18 97 -32 32 -126
30 -154 -3z"/>
<path d="M3953 1927 c-45 -45 16 -127 94 -127 54 0 95 58 72 101 -20 39 -135
56 -166 26z"/>
<path d="M4833 1727 c-29 -30 -14 -348 17 -360 64 -24 90 31 90 193 0 161 -44
229 -107 167z"/>
</g>
</svg>
