<?xml version="1.0" standalone="no"?>
<!DOCTYPE svg PUBLIC "-//W3C//DTD SVG 20010904//EN"
 "http://www.w3.org/TR/2001/REC-SVG-20010904/DTD/svg10.dtd">
<svg version="1.0" xmlns="http://www.w3.org/2000/svg"
 width="200.000000pt" height="200.000000pt" viewBox="0 0 200.000000 200.000000"
 preserveAspectRatio="xMidYMid meet">
<metadata>
Created by potrace 1.10, written by Peter Selinger 2001-2011
</metadata>
<g transform="translate(0.000000,200.000000) scale(0.050000,-0.050000)"
fill="#ff2969" stroke="none">
<path d="M31 3969 c-41 -42 -48 -3904 -7 -3945 35 -35 3917 -35 3952 0 33 33
30 186 -3 214 -44 36 -93 5 -93 -60 l0 -58 -1880 0 -1880 0 0 72 0 72 79 -14
c94 -16 153 -1 169 43 23 59 -28 90 -137 84 -100 -5 -101 -5 -107 59 -6 61 -3
64 63 64 53 0 73 10 83 40 18 58 -4 80 -81 80 -65 0 -69 4 -69 69 l0 68 108
-11 c97 -10 110 -7 131 33 38 71 -6 105 -128 98 -100 -5 -101 -5 -107 59 -6
61 -3 64 63 64 53 0 73 10 83 40 18 58 -4 80 -81 80 -65 0 -69 4 -69 70 l0 70
118 0 c90 0 121 8 130 33 22 57 -26 87 -140 87 -107 0 -108 1 -108 60 0 53 7
60 58 60 65 0 112 45 95 90 -7 19 -38 30 -82 30 -68 0 -71 3 -71 70 l0 70 118
0 c90 0 121 8 130 33 22 57 -26 87 -140 87 -107 0 -108 1 -108 60 0 53 7 60
58 60 65 0 112 45 95 90 -7 19 -38 30 -82 30 -68 0 -71 3 -71 73 l0 72 90 -10
c102 -11 158 18 147 76 -6 32 -27 40 -122 45 -142 7 -184 115 -50 128 54 5 65
14 65 56 0 42 -11 51 -65 56 -60 6 -65 12 -65 77 l0 71 103 -7 c109 -7 156 25
131 90 -10 25 -39 33 -123 33 -138 0 -179 111 -46 124 54 5 65 14 65 56 0 42
-11 51 -65 56 l-65 7 0 378 0 379 46 0 c65 0 97 37 72 83 -25 47 -161 51 -207
6z"/>
<path d="M382 3973 c-54 -66 -5 -93 168 -93 135 0 168 6 178 33 24 62 -26 87
-178 87 -99 0 -152 -9 -168 -27z"/>
<path d="M862 3973 c-55 -66 -5 -93 171 -93 177 0 222 24 167 90 -34 40 -305
42 -338 3z"/>
<path d="M1347 3970 c-29 -75 6 -92 177 -86 168 6 233 48 153 98 -49 32 -317
22 -330 -12z"/>
<path d="M1828 3971 c-30 -76 4 -93 177 -87 161 6 165 7 165 56 0 63 -319 91
-342 31z"/>
<path d="M2323 3983 c-15 -10 -24 -35 -20 -55 13 -68 347 -56 347 12 0 53
-259 87 -327 43z"/>
<path d="M2800 3970 c-55 -66 -10 -90 167 -90 176 0 226 27 171 93 -33 39
-304 37 -338 -3z"/>
<path d="M3282 3973 c-54 -66 -5 -93 168 -93 135 0 168 6 178 33 24 62 -26 87
-178 87 -99 0 -152 -9 -168 -27z"/>
<path d="M3762 3973 c-36 -44 -5 -93 60 -93 51 0 58 -7 58 -58 0 -65 49 -96
93 -60 33 28 36 181 3 214 -33 33 -186 30 -214 -3z"/>
<path d="M3893 3627 c-31 -31 -14 -342 20 -355 62 -24 87 26 87 176 0 161 -47
239 -107 179z"/>
<path d="M2764 3531 l-94 -89 46 -33 c25 -18 159 -124 296 -236 358 -290 315
-271 387 -172 121 168 92 243 -181 460 -252 201 -308 209 -454 70z"/>
<path d="M1954 2569 l-636 -768 96 -150 c53 -82 102 -148 109 -145 7 2 316
367 686 810 l674 806 -47 37 c-25 20 -86 69 -136 109 -49 39 -94 71 -100 70
-5 0 -296 -347 -646 -769z"/>
<path d="M831 3169 c-24 -24 -26 -41 -10 -72 30 -54 165 -46 176 12 14 76
-106 119 -166 60z"/>
<path d="M1089 3171 c-51 -38 -18 -98 59 -107 93 -11 138 47 81 105 -40 39
-90 40 -140 2z"/>
<path d="M1343 3182 c-14 -9 -23 -38 -20 -64 9 -65 162 -73 174 -9 13 66 -89
115 -154 73z"/>
<path d="M1589 3171 c-51 -38 -18 -98 59 -107 93 -11 138 47 81 105 -40 39
-90 40 -140 2z"/>
<path d="M1843 3182 c-14 -9 -23 -38 -20 -64 9 -65 162 -73 174 -9 13 66 -89
115 -154 73z"/>
<path d="M2089 3171 c-53 -39 -16 -99 67 -107 78 -8 122 55 73 105 -40 39 -90
40 -140 2z"/>
<path d="M3905 3147 c-39 -16 -34 -345 5 -360 63 -24 90 32 90 181 0 164 -23
208 -95 179z"/>
<path d="M2430 2386 c-297 -358 -602 -723 -677 -810 -75 -88 -133 -162 -130
-166 29 -27 344 -131 357 -117 9 9 300 358 646 775 l630 758 -137 107 c-75 59
-139 106 -143 105 -3 -1 -249 -294 -546 -652z"/>
<path d="M820 2959 c-38 -71 -9 -143 56 -135 49 5 54 14 54 86 0 95 -69 126
-110 49z"/>
<path d="M831 2729 c-63 -64 -8 -200 63 -157 43 27 58 119 25 159 -31 37 -49
36 -88 -2z"/>
<path d="M3889 2635 c-32 -84 1 -325 45 -331 56 -8 70 41 62 217 -6 129 -73
201 -107 114z"/>
<path d="M820 2459 c-38 -71 -9 -143 56 -135 49 5 54 14 54 86 0 95 -69 126
-110 49z"/>
<path d="M3072 2408 c-20 -53 -13 -122 15 -146 66 -54 139 52 94 136 -26 49
-92 56 -109 10z"/>
<path d="M831 2229 c-63 -64 -8 -200 63 -157 43 27 58 119 25 159 -31 37 -49
36 -88 -2z"/>
<path d="M3068 2152 c-24 -62 1 -142 46 -148 54 -8 94 60 77 128 -13 54 -104
69 -123 20z"/>
<path d="M3889 2155 c-36 -93 1 -325 51 -325 74 0 79 336 5 346 -25 4 -50 -6
-56 -21z"/>
<path d="M820 1959 c-38 -71 -9 -143 56 -135 49 5 54 14 54 86 0 95 -69 126
-110 49z"/>
<path d="M3085 1927 c-34 -14 -32 -136 2 -165 66 -54 139 52 94 136 -22 41
-47 49 -96 29z"/>
<path d="M831 1729 c-63 -64 -8 -200 63 -157 43 27 58 119 25 159 -31 37 -49
36 -88 -2z"/>
<path d="M3888 1673 c-35 -91 2 -323 52 -323 52 0 82 179 51 304 -13 51 -85
64 -103 19z"/>
<path d="M3068 1652 c-24 -62 1 -142 46 -148 54 -8 94 60 77 128 -13 54 -104
69 -123 20z"/>
<path d="M1220 1576 c-42 -160 -179 -649 -190 -680 -7 -17 2 -45 20 -63 28
-28 790 314 790 355 0 4 -80 36 -179 72 l-179 64 -104 159 c-129 196 -131 197
-158 93z"/>
<path d="M820 1459 c-38 -71 -9 -143 56 -135 49 5 54 14 54 86 0 95 -69 126
-110 49z"/>
<path d="M3085 1427 c-34 -14 -32 -136 2 -165 66 -54 139 52 94 136 -22 41
-47 49 -96 29z"/>
<path d="M831 1229 c-63 -64 -8 -200 63 -157 43 27 58 119 25 159 -31 37 -49
36 -88 -2z"/>
<path d="M3893 1207 c-31 -31 -14 -342 20 -355 62 -24 87 26 87 176 0 161 -47
239 -107 179z"/>
<path d="M3068 1152 c-24 -62 1 -142 46 -148 54 -8 94 60 77 128 -13 54 -104
69 -123 20z"/>
<path d="M824 976 c-34 -34 -30 -107 8 -145 50 -50 76 -27 82 75 7 99 -32 128
-90 70z"/>
<path d="M1565 905 c-68 -34 -74 -59 -22 -92 73 -46 186 37 135 100 -28 33
-31 33 -113 -8z"/>
<path d="M1764 916 c-32 -32 -30 -47 7 -85 64 -63 185 -14 160 66 -16 49 -125
61 -167 19z"/>
<path d="M2014 928 c-55 -56 31 -141 119 -119 84 21 58 119 -34 127 -39 3 -77
-1 -85 -8z"/>
<path d="M2264 916 c-32 -32 -30 -47 7 -85 64 -63 185 -14 160 66 -16 49 -125
61 -167 19z"/>
<path d="M2514 928 c-55 -56 31 -141 119 -119 84 21 58 119 -34 127 -39 3 -77
-1 -85 -8z"/>
<path d="M2764 916 c-32 -32 -30 -47 7 -85 64 -63 185 -14 160 66 -16 49 -125
61 -167 19z"/>
<path d="M3013 927 c-45 -45 16 -127 94 -127 54 0 95 58 72 101 -20 39 -135
56 -166 26z"/>
<path d="M3893 727 c-31 -31 -14 -342 20 -355 62 -24 87 26 87 176 0 161 -47
239 -107 179z"/>
</g>
</svg>
