<?xml version="1.0" standalone="no"?>
<!DOCTYPE svg PUBLIC "-//W3C//DTD SVG 20010904//EN"
 "http://www.w3.org/TR/2001/REC-SVG-20010904/DTD/svg10.dtd">
<svg version="1.0" xmlns="http://www.w3.org/2000/svg"
 width="600.000000pt" height="600.000000pt" viewBox="0 0 600.000000 600.000000"
 preserveAspectRatio="xMidYMid meet">
<metadata>
Created by potrace 1.10, written by Peter Selinger 2001-2011
</metadata>
<g transform="translate(0.000000,600.000000) scale(0.100000,-0.100000)"
fill="#ff2969" stroke="none">
<path d="M40 5987 c0 -8 -9 -22 -20 -32 -20 -18 -20 -31 -20 -2967 0 -2935 0
-2948 20 -2968 20 -20 33 -20 2975 -20 2005 0 2955 3 2955 10 0 6 11 16 25 22
25 11 25 12 25 150 0 93 -4 138 -11 138 -6 0 -22 9 -36 20 -33 26 -83 26 -115
0 -22 -16 -26 -30 -30 -84 -2 -36 -7 -69 -12 -73 -10 -11 -5602 -10 -5612 0
-15 14 -17 146 -4 162 10 12 40 15 144 15 158 0 196 13 210 72 11 46 -6 91
-40 107 -15 6 -80 11 -155 11 -72 0 -139 5 -150 10 -16 9 -19 22 -19 83 0 44
5 78 12 85 7 7 42 12 89 12 74 0 78 1 103 31 29 35 33 67 11 108 -18 36 -32
41 -113 41 -37 0 -74 4 -82 10 -19 12 -27 144 -10 165 10 12 40 15 144 15 105
0 138 4 165 18 40 20 56 57 47 108 -11 54 -42 64 -196 64 -72 0 -140 5 -151
10 -16 9 -19 22 -19 83 0 44 5 78 12 85 7 7 42 12 89 12 74 0 78 1 103 31 29
35 33 67 11 108 -18 36 -32 41 -113 41 -37 0 -73 4 -81 9 -16 11 -27 103 -17
155 l7 34 154 4 c145 3 156 4 177 26 32 32 32 102 0 134 -21 21 -33 23 -180
28 l-157 5 0 85 0 85 80 5 c85 5 117 19 134 57 15 32 14 59 -4 92 -17 33 -38
41 -122 41 -80 0 -93 13 -93 88 0 106 -10 100 166 104 144 3 155 4 176 26 32
32 32 102 0 134 -21 21 -33 23 -180 28 l-157 5 0 85 0 85 80 5 c85 5 117 19
134 57 15 32 14 59 -4 92 -17 33 -38 41 -122 41 -81 0 -93 12 -93 94 0 94 1
94 168 98 144 3 144 3 168 31 36 42 32 82 -11 123 l-36 33 -142 3 -142 3 0 85
0 85 75 5 c104 7 130 26 130 92 0 74 -20 90 -119 96 -90 5 -91 5 -91 103 0 86
2 87 168 91 144 3 144 3 168 31 36 42 32 82 -11 123 l-36 33 -142 3 -142 3 0
85 0 85 75 5 c104 7 130 26 130 92 0 74 -20 90 -120 96 l-80 5 -5 31 c-9 47
-1 1073 8 1082 4 5 37 10 73 12 54 4 68 8 84 30 26 32 26 82 0 115 -11 14 -20
30 -20 36 0 7 -45 11 -140 11 -111 0 -140 -3 -140 -13z"/>
<path d="M590 5991 c0 -6 -11 -22 -25 -37 -14 -15 -25 -38 -25 -51 0 -31 25
-79 45 -87 9 -3 115 -6 235 -6 214 0 220 1 240 22 11 13 23 33 27 45 6 28 -13
79 -33 87 -8 3 -14 12 -14 21 0 13 -30 15 -225 15 -135 0 -225 -4 -225 -9z"/>
<path d="M1310 5985 c0 -7 -7 -18 -16 -23 -10 -5 -18 -27 -21 -53 -4 -35 0
-50 17 -71 l21 -28 229 0 229 0 20 27 c35 43 36 69 7 107 -14 19 -26 39 -26
45 0 8 -74 11 -230 11 -194 0 -230 -2 -230 -15z"/>
<path d="M2035 5991 c3 -6 -5 -19 -17 -31 -33 -30 -31 -101 3 -129 22 -19 39
-20 250 -21 l225 0 22 30 c29 39 28 82 -3 116 -13 14 -22 30 -19 35 3 5 -99 9
-231 9 -145 0 -234 -4 -230 -9z"/>
<path d="M2760 5987 c0 -8 -9 -22 -20 -32 -29 -26 -27 -95 3 -123 22 -21 31
-22 248 -22 223 0 226 0 247 23 29 31 30 97 2 122 -11 10 -20 24 -20 32 0 10
-44 13 -230 13 -186 0 -230 -3 -230 -13z"/>
<path d="M3480 5989 c0 -6 -9 -22 -20 -36 -26 -33 -25 -77 2 -113 l22 -30 225
0 c212 1 228 2 250 21 33 27 35 100 3 130 -12 11 -22 24 -22 29 0 6 -90 10
-230 10 -160 0 -230 -3 -230 -11z"/>
<path d="M4210 5989 c0 -6 -11 -24 -25 -41 -32 -38 -32 -69 1 -107 l26 -31
228 0 229 0 20 26 c27 34 27 84 1 117 -11 14 -20 30 -20 36 0 8 -70 11 -230
11 -161 0 -230 -3 -230 -11z"/>
<path d="M4940 5985 c0 -8 -5 -15 -10 -15 -6 0 -18 -15 -27 -34 -18 -39 -12
-77 17 -106 19 -19 34 -20 245 -20 219 0 225 1 245 22 11 13 23 33 27 46 6 26
-20 92 -37 92 -5 0 -10 7 -10 15 0 13 -32 15 -225 15 -193 0 -225 -2 -225 -15z"/>
<path d="M5660 5985 c0 -7 -7 -18 -16 -23 -10 -5 -18 -27 -21 -53 -4 -34 0
-50 16 -70 18 -23 30 -27 85 -31 36 -2 69 -7 73 -11 4 -4 9 -37 11 -73 4 -54
8 -68 30 -84 32 -26 82 -26 115 0 14 11 30 20 36 20 7 0 11 47 11 146 0 90 -4
143 -10 139 -12 -8 -53 33 -45 45 4 6 -49 10 -139 10 -121 0 -146 -2 -146 -15z"/>
<path d="M5855 5428 c-43 -23 -45 -32 -45 -265 0 -217 1 -223 22 -243 13 -11
33 -23 45 -27 28 -6 79 13 87 33 3 8 12 14 21 14 13 0 15 30 15 225 0 135 -4
225 -9 225 -6 0 -22 11 -37 25 -28 26 -66 32 -99 13z"/>
<path d="M4273 5397 c-28 -12 -65 -33 -81 -45 -49 -38 -162 -178 -162 -200 0
-11 10 -26 23 -35 12 -8 33 -25 47 -37 14 -12 52 -43 85 -68 33 -26 65 -51 70
-58 6 -6 38 -33 73 -60 35 -27 96 -75 135 -107 40 -31 106 -84 147 -117 41
-33 109 -87 150 -120 41 -33 105 -84 143 -112 37 -29 67 -56 67 -60 0 -31 45
12 130 125 78 103 84 120 84 227 0 80 -4 102 -23 138 -28 51 -90 114 -191 193
-41 32 -109 86 -150 119 -183 146 -261 204 -297 218 -21 9 -74 17 -118 19 -66
2 -89 -1 -132 -20z"/>
<path d="M3864 4973 c-13 -16 -143 -172 -289 -348 -359 -432 -419 -505 -495
-595 -36 -42 -90 -108 -120 -145 -30 -37 -62 -75 -70 -84 -9 -9 -33 -38 -55
-66 -49 -62 -75 -93 -95 -114 -9 -9 -33 -38 -55 -66 -41 -52 -73 -89 -90 -109
-6 -6 -28 -33 -50 -61 -22 -27 -46 -57 -55 -66 -20 -21 -46 -52 -95 -114 -22
-27 -46 -57 -55 -66 -8 -9 -40 -47 -70 -84 -30 -37 -84 -103 -120 -145 -101
-120 -175 -210 -178 -219 -3 -8 255 -398 286 -434 8 -10 19 -16 22 -15 4 2
112 129 240 283 292 350 294 353 377 451 37 45 86 103 108 129 22 27 45 53 50
59 6 6 28 34 50 61 22 28 46 57 55 66 16 17 27 30 100 119 73 89 84 102 100
119 9 9 33 39 55 66 22 28 44 55 50 61 5 6 28 32 50 59 22 26 71 84 108 129
78 93 60 72 402 481 142 171 265 316 272 323 21 22 22 22 -176 180 -36 29 -96
76 -133 104 -38 29 -68 56 -68 60 0 18 -33 6 -56 -19z"/>
<path d="M1260 4758 c-34 -18 -53 -62 -46 -103 10 -50 56 -75 139 -75 60 0 70
3 102 31 43 38 47 83 11 126 -22 25 -31 28 -103 31 -51 2 -87 -2 -103 -10z"/>
<path d="M1637 4762 c-24 -10 -57 -62 -57 -89 0 -12 16 -38 35 -58 34 -34 39
-35 108 -35 66 0 75 3 105 29 51 47 39 129 -21 151 -33 11 -142 12 -170 2z"/>
<path d="M2010 4758 c-34 -18 -53 -62 -46 -103 10 -50 56 -75 139 -75 60 0 70
3 102 31 43 38 47 83 11 126 -22 25 -31 28 -103 31 -51 2 -87 -2 -103 -10z"/>
<path d="M2387 4762 c-24 -10 -57 -62 -57 -89 0 -12 16 -38 35 -58 34 -34 39
-35 108 -35 66 0 75 3 105 29 51 47 39 129 -21 151 -33 11 -142 12 -170 2z"/>
<path d="M2760 4758 c-34 -18 -53 -62 -46 -103 10 -50 56 -75 139 -75 60 0 70
3 102 31 43 38 47 83 11 126 -22 25 -31 28 -103 31 -51 2 -87 -2 -103 -10z"/>
<path d="M3137 4762 c-24 -10 -57 -62 -57 -89 0 -12 16 -38 35 -58 34 -33 39
-35 104 -35 67 0 69 1 105 40 20 22 36 49 36 60 0 35 -22 69 -53 80 -33 11
-142 12 -170 2z"/>
<path d="M5836 4689 l-26 -20 0 -229 0 -229 27 -20 c43 -35 69 -36 107 -7 19
14 39 26 45 26 8 0 11 74 11 230 0 160 -3 230 -11 230 -6 0 -22 9 -36 20 -33
26 -83 26 -117 -1z"/>
<path d="M4373 4447 c-48 -57 -128 -152 -178 -211 -49 -60 -119 -143 -155
-186 -36 -42 -83 -99 -105 -125 -22 -27 -56 -67 -75 -90 -19 -23 -53 -64 -75
-90 -22 -27 -45 -53 -50 -59 -6 -6 -29 -33 -51 -61 -42 -53 -79 -98 -104 -124
-9 -9 -33 -38 -55 -66 -22 -27 -44 -55 -50 -61 -5 -6 -28 -33 -50 -59 -22 -27
-67 -80 -100 -119 -34 -39 -72 -85 -85 -102 -14 -17 -160 -192 -325 -389 -165
-197 -311 -372 -325 -389 -13 -17 -55 -67 -92 -110 -72 -84 -84 -116 -45 -116
13 0 32 -7 43 -15 10 -8 27 -15 36 -15 9 0 29 -6 45 -14 15 -8 47 -22 71 -30
23 -9 59 -22 80 -30 99 -37 129 -49 155 -62 46 -23 63 -17 104 33 34 44 52 65
123 149 14 16 43 51 64 79 48 59 76 92 97 114 8 9 30 36 49 61 19 25 41 52 49
61 20 20 46 51 96 114 22 28 46 57 55 66 21 22 50 56 96 114 21 28 49 61 61
75 34 40 137 164 528 635 146 176 303 365 348 419 45 54 109 131 142 170 33
39 78 94 100 121 22 28 42 52 45 55 4 3 10 13 13 24 9 23 -2 33 -270 242 -43
34 -84 69 -92 78 -7 9 -17 16 -22 16 -5 0 -48 -46 -96 -103z"/>
<path d="M1243 4466 c-25 -22 -28 -31 -31 -103 -2 -51 2 -87 10 -103 19 -34
60 -52 103 -44 51 9 75 53 75 137 0 60 -3 70 -31 102 -38 43 -83 47 -126 11z"/>
<path d="M1253 4098 c-28 -14 -43 -57 -43 -127 0 -78 8 -98 45 -121 46 -28 69
-25 110 15 34 34 35 38 35 109 0 68 -2 76 -29 105 -31 33 -74 40 -118 19z"/>
<path d="M5865 3983 c-11 -3 -28 -13 -37 -24 -16 -16 -18 -43 -18 -247 l0
-228 30 -22 c39 -29 82 -28 116 3 15 14 31 25 35 25 5 0 9 101 9 225 0 137 -4
225 -10 225 -5 0 -18 9 -28 20 -19 21 -64 32 -97 23z"/>
<path d="M1243 3716 c-25 -22 -28 -31 -31 -103 -2 -51 2 -87 10 -103 19 -34
60 -52 103 -44 51 9 75 53 75 137 0 60 -3 70 -31 102 -38 43 -83 47 -126 11z"/>
<path d="M4615 3615 c-34 -34 -35 -38 -35 -109 0 -68 2 -76 29 -105 37 -39 87
-42 127 -8 23 20 28 34 32 85 7 93 -3 127 -42 151 -47 29 -70 26 -111 -14z"/>
<path d="M1253 3348 c-28 -14 -43 -57 -43 -127 0 -78 8 -98 45 -121 46 -28 69
-25 110 15 34 34 35 38 35 109 0 68 -2 76 -29 105 -31 33 -74 40 -118 19z"/>
<path d="M4637 3262 c-36 -15 -57 -63 -57 -134 0 -61 3 -71 31 -103 38 -43 83
-47 126 -11 27 23 28 28 28 115 0 78 -3 93 -21 111 -22 22 -78 34 -107 22z"/>
<path d="M5832 3237 c-21 -22 -22 -31 -22 -248 0 -223 0 -226 23 -247 31 -29
97 -30 122 -2 10 11 24 20 32 20 10 0 13 44 13 230 0 186 -3 230 -13 230 -8 0
-22 9 -32 20 -26 29 -95 27 -123 -3z"/>
<path d="M1243 2966 c-25 -22 -28 -31 -31 -103 -2 -51 2 -87 10 -103 19 -34
60 -52 103 -44 51 9 75 53 75 137 0 60 -3 70 -31 102 -38 43 -83 47 -126 11z"/>
<path d="M4615 2865 c-34 -34 -35 -38 -35 -109 0 -68 2 -76 29 -105 37 -39 87
-42 127 -8 23 20 28 34 32 85 7 93 -3 127 -42 151 -47 29 -70 26 -111 -14z"/>
<path d="M1253 2598 c-28 -14 -43 -57 -43 -127 0 -78 8 -98 45 -121 46 -28 69
-25 110 15 34 34 35 38 35 109 0 68 -2 76 -29 105 -31 33 -74 40 -118 19z"/>
<path d="M5838 2517 l-28 -23 0 -224 c1 -211 2 -227 21 -249 27 -33 100 -35
130 -3 11 12 24 22 29 22 6 0 10 90 10 232 0 127 -3 228 -6 225 -4 -4 -20 5
-36 18 -37 31 -84 32 -120 2z"/>
<path d="M4637 2512 c-36 -15 -57 -63 -57 -134 0 -61 3 -71 31 -103 38 -43 83
-47 126 -11 27 23 28 28 28 115 0 78 -3 93 -21 111 -22 22 -78 34 -107 22z"/>
<path d="M1856 2468 c-2 -7 -10 -39 -19 -71 -9 -31 -24 -83 -33 -115 -8 -31
-21 -77 -29 -102 -7 -25 -20 -74 -30 -110 -10 -36 -23 -85 -30 -110 -13 -42
-24 -83 -62 -220 -9 -30 -22 -75 -29 -100 -7 -25 -20 -72 -29 -105 -9 -33 -22
-76 -27 -94 -32 -106 -36 -140 -19 -173 20 -40 56 -60 96 -53 17 3 170 75 340
161 171 86 317 159 325 163 8 4 24 13 35 19 11 7 27 15 35 18 8 3 22 9 30 14
8 5 88 45 178 90 89 45 162 86 162 91 0 5 -8 12 -17 15 -17 5 -39 14 -135 50
-24 9 -59 22 -78 29 -86 31 -127 48 -153 61 -16 8 -36 14 -46 14 -9 0 -26 7
-37 15 -10 8 -26 15 -34 15 -8 0 -24 8 -35 18 -17 14 -172 236 -210 300 -5 9
-22 33 -37 53 -16 20 -28 40 -28 43 0 11 -64 95 -73 96 -4 0 -9 -6 -11 -12z"/>
<path d="M1243 2216 c-25 -22 -28 -31 -31 -103 -2 -51 2 -87 10 -103 19 -34
60 -52 103 -44 51 9 75 53 75 137 0 60 -3 70 -31 102 -38 43 -83 47 -126 11z"/>
<path d="M4615 2115 c-34 -34 -35 -38 -35 -109 0 -68 2 -76 29 -105 37 -39 87
-42 127 -8 23 20 28 34 32 85 7 93 -3 127 -42 151 -47 29 -70 26 -111 -14z"/>
<path d="M1253 1848 c-28 -14 -43 -57 -43 -127 0 -78 8 -98 45 -121 46 -28 69
-25 110 15 34 34 35 38 35 109 0 68 -2 76 -29 105 -31 33 -74 40 -118 19z"/>
<path d="M5841 1794 l-31 -26 0 -228 0 -229 26 -20 c34 -27 84 -27 117 -1 14
11 30 20 36 20 8 0 11 70 11 230 0 161 -3 230 -11 230 -6 0 -24 11 -41 25 -38
32 -69 32 -107 -1z"/>
<path d="M4637 1762 c-36 -15 -57 -63 -57 -134 0 -61 3 -71 31 -103 38 -43 83
-47 126 -11 27 23 28 28 28 115 0 78 -3 93 -21 111 -22 22 -78 34 -107 22z"/>
<path d="M1239 1464 c-20 -22 -24 -37 -27 -102 -2 -50 2 -86 10 -102 19 -35
63 -54 101 -43 30 8 30 9 32 78 1 39 5 89 10 113 6 34 4 46 -10 62 -27 30 -85
27 -116 -6z"/>
<path d="M2395 1374 c-22 -13 -47 -26 -55 -30 -8 -3 -22 -10 -30 -15 -8 -5
-25 -13 -38 -19 -35 -15 -38 -38 -9 -68 23 -22 38 -27 94 -30 93 -5 133 7 157
47 16 28 17 37 6 70 -11 34 -53 73 -77 70 -4 -1 -26 -12 -48 -25z"/>
<path d="M2651 1371 c-22 -20 -31 -38 -31 -60 0 -71 38 -101 130 -101 80 0
108 10 130 45 28 46 25 69 -15 110 -34 34 -38 35 -109 35 -68 0 -76 -2 -105
-29z"/>
<path d="M3025 1369 c-43 -38 -47 -83 -11 -126 22 -25 31 -28 103 -31 51 -2
87 2 103 10 34 18 53 62 46 103 -10 50 -56 75 -139 75 -60 0 -70 -3 -102 -31z"/>
<path d="M3401 1371 c-22 -20 -31 -38 -31 -60 0 -71 38 -101 130 -101 80 0
108 10 130 45 28 46 25 69 -15 110 -34 34 -38 35 -109 35 -68 0 -76 -2 -105
-29z"/>
<path d="M3775 1369 c-43 -38 -47 -83 -11 -126 22 -25 31 -28 103 -31 51 -2
87 2 103 10 34 18 53 62 46 103 -10 50 -56 75 -139 75 -60 0 -70 -3 -102 -31z"/>
<path d="M4151 1371 c-22 -20 -31 -38 -31 -60 0 -71 38 -101 130 -101 80 0
108 10 130 45 28 46 25 69 -15 110 -34 34 -38 35 -109 35 -68 0 -76 -2 -105
-29z"/>
<path d="M4525 1369 c-43 -38 -47 -83 -11 -126 22 -25 31 -28 103 -31 51 -2
87 2 103 10 34 18 53 62 46 103 -10 50 -56 75 -139 75 -60 0 -70 -3 -102 -31z"/>
<path d="M5843 1070 l-33 -20 0 -229 c0 -225 0 -231 22 -251 13 -11 33 -23 45
-27 28 -6 79 13 87 33 3 8 12 14 21 14 13 0 15 30 15 225 0 135 -4 225 -9 225
-6 0 -22 11 -37 25 -32 30 -68 32 -111 5z"/>
</g>
</svg>
