<?xml version="1.0" standalone="no"?>
<!DOCTYPE svg PUBLIC "-//W3C//DTD SVG 20010904//EN"
 "http://www.w3.org/TR/2001/REC-SVG-20010904/DTD/svg10.dtd">
<svg version="1.0" xmlns="http://www.w3.org/2000/svg"
 width="300.000000pt" height="300.000000pt" viewBox="0 0 300.000000 300.000000"
 preserveAspectRatio="xMidYMid meet">
<metadata>
Created by potrace 1.10, written by Peter Selinger 2001-2011
</metadata>
<g transform="translate(0.000000,300.000000) scale(0.050000,-0.050000)"
fill="#ff2969" stroke="none">
<path d="M2157 5053 c-164 -68 -326 -163 -495 -291 -81 -62 -183 -138 -225
-171 -79 -59 -202 -87 -332 -75 l-65 7 0 139 0 139 -375 -6 c-360 -5 -375 -7
-375 -45 0 -38 13 -40 325 -40 l325 0 0 -735 0 -734 -325 -6 c-310 -5 -325 -7
-325 -45 0 -39 13 -40 370 -40 l370 0 6 135 c7 160 -10 158 275 45 368 -145
543 -99 968 257 85 71 113 85 130 65 11 -14 50 -46 85 -70 36 -24 94 -84 129
-133 77 -107 101 -110 156 -20 267 432 892 275 835 -210 -30 -249 -441 -779
-849 -1094 l-65 -50 -223 208 c-366 339 -579 610 -648 823 -43 131 -61 151
-100 112 -93 -93 151 -484 545 -871 197 -194 222 -226 186 -237 -60 -19 -111
-128 -82 -174 20 -32 15 -36 -44 -36 -142 0 -319 -137 -319 -247 0 -45 -14
-56 -102 -82 -252 -73 -381 -225 -369 -435 l6 -106 1065 -5 c1284 -6 1231 -17
1724 359 91 69 191 145 223 169 60 45 263 81 332 59 30 -10 36 -34 36 -147 l0
-135 369 -5 c276 -5 372 0 383 19 39 62 -23 76 -344 76 l-318 0 0 730 0 730
328 0 c260 0 330 6 338 28 24 61 -32 72 -378 72 -401 0 -400 0 -382 -170 14
-137 12 -137 -244 -27 -320 138 -451 125 -752 -72 -430 -282 -910 -821 -910
-1022 0 -44 -1 -44 -455 -53 -507 -10 -481 -13 -446 51 52 99 140 120 541 129
367 8 425 20 378 77 -15 18 -95 21 -312 12 l-291 -11 15 48 c8 26 26 62 40 78
14 17 29 43 34 58 6 21 31 9 90 -45 103 -93 84 -98 274 74 553 504 796 833
826 1120 52 506 -599 751 -939 353 l-70 -81 -50 66 c-28 36 -86 88 -130 115
l-81 50 157 163 c188 197 297 356 329 483 l24 94 458 12 c527 14 472 20 442
-43 -50 -102 -149 -127 -554 -138 -331 -10 -370 -15 -376 -46 -6 -32 19 -35
305 -35 l312 0 -31 -60 c-54 -103 -115 -120 -445 -120 -298 0 -354 -12 -331
-72 13 -35 554 -40 674 -6 111 31 199 123 188 197 -8 52 -3 58 65 67 169 22
311 144 292 249 -6 36 4 48 45 57 297 64 466 263 428 503 l-11 65 -1072 0
-1073 -1 -113 -46z m2183 -78 c0 -287 -269 -390 -1045 -398 l-374 -3 -42 53
c-76 96 -121 76 -449 -200 -394 -330 -454 -386 -444 -414 16 -49 81 -35 151
33 117 112 627 534 645 534 40 0 82 -101 70 -167 -41 -215 -639 -814 -1003
-1004 -178 -93 -261 -92 -497 9 -100 42 -211 84 -247 91 l-65 14 0 449 0 448
141 0 c175 0 243 28 425 176 197 161 304 231 497 324 l165 80 1036 0 c818 0
1036 -5 1036 -25z m285 -2273 c102 -43 212 -84 245 -91 l60 -12 0 -448 0 -447
-172 -7 c-192 -8 -179 -1 -506 -256 -98 -77 -254 -178 -348 -225 l-169 -86
-1048 -6 -1047 -5 0 65 c0 248 221 333 920 354 l470 14 61 -56 c97 -89 118
-79 517 257 352 296 432 387 340 387 -29 0 -314 -229 -627 -504 -122 -107
-149 -115 -183 -53 -78 146 120 444 540 811 449 393 617 447 947 308z"/>
<path d="M3120 3561 c0 -30 19 -43 75 -53 211 -38 285 -157 227 -362 -24 -83
25 -138 69 -78 102 140 31 406 -130 487 -116 58 -241 61 -241 6z"/>
<path d="M2966 2148 c-19 -50 34 -71 144 -58 183 22 174 90 -12 90 -91 0 -122
-8 -132 -32z"/>
</g>
</svg>
