<?xml version="1.0" standalone="no"?>
<!DOCTYPE svg PUBLIC "-//W3C//DTD SVG 20010904//EN"
 "http://www.w3.org/TR/2001/REC-SVG-20010904/DTD/svg10.dtd">
<svg version="1.0" xmlns="http://www.w3.org/2000/svg"
 width="300.000000pt" height="300.000000pt" viewBox="0 0 300.000000 300.000000"
 preserveAspectRatio="xMidYMid meet">
<metadata>
Created by potrace 1.10, written by Peter Selinger 2001-2011
</metadata>
<g transform="translate(0.000000,300.000000) scale(0.050000,-0.050000)"
fill="#ff2969" stroke="none">
<path d="M2733 4399 c-652 -225 -835 -1061 -334 -1525 751 -695 1897 169 1434
1081 -197 387 -688 585 -1100 444z m569 -138 c319 -119 513 -421 494 -768 -42
-799 -1116 -1016 -1471 -298 -311 630 316 1314 977 1066z"/>
<path d="M2656 3940 c-181 -150 -270 -550 -108 -488 32 12 39 30 63 178 9 61
36 103 112 176 156 151 97 270 -67 134z"/>
<path d="M1213 2970 c-25 -65 65 -138 124 -102 99 61 414 -66 716 -289 719
-530 1255 -535 1900 -18 303 243 537 341 728 306 69 -13 128 35 110 90 -12 39
-27 43 -161 43 -251 0 -455 -84 -697 -287 -629 -527 -1099 -544 -1752 -62
-276 204 -366 257 -515 307 -156 52 -435 60 -453 12z"/>
<path d="M1223 2414 c-58 -71 3 -114 164 -114 185 0 329 -38 603 -159 447
-198 582 -236 901 -255 347 -20 653 46 1059 229 312 141 404 167 618 182 216
14 270 43 211 114 -72 87 -453 14 -856 -164 -709 -312 -1162 -311 -1865 4
-375 168 -767 245 -835 163z"/>
<path d="M1166 1647 c-35 -91 -86 -88 1834 -88 1920 0 1869 -3 1834 88 -20 51
-3648 51 -3668 0z"/>
</g>
</svg>
