 <svg  version="1.0" xmlns="http://www.w3.org/2000/svg"  width="300.000000pt" height="300.000000pt" viewBox="0 0 300.000000 300.000000"  preserveAspectRatio="xMidYMid meet">  <g transform="translate(0.000000,300.000000) scale(0.050000,-0.050000)" fill="#ff2969" stroke="none"> <path d="M2607 5929 c0 -15 8 -22 19 -15 12 7 15 -8 7 -41 -11 -43 -7 -53 22 -51 20 1 25 5 10 11 -17 7 -19 21 -6 45 13 25 9 40 -17 56 -27 17 -35 16 -35 -5z"/> <path d="M5894 5407 c-7 -7 -3 -30 9 -52 19 -37 16 -40 -31 -31 -44 9 -52 3 -52 -37 0 -26 9 -47 19 -47 11 0 15 14 8 30 -7 19 1 30 21 30 29 0 41 -24 34 -66 -2 -10 5 -12 14 -7 9 6 14 49 10 96 -7 90 -12 104 -32 84z"/> <path d="M5498 5170 c-9 -46 -3 -111 11 -115 25 -7 31 63 7 77 -13 8 -10 19 7 30 20 13 20 17 2 18 -14 0 -26 -4 -27 -10z"/> <path d="M5951 5141 c-8 -12 -24 -16 -37 -8 -13 7 -17 6 -9 -3 8 -9 6 -26 -4 -39 -12 -14 -12 -34 0 -52 14 -23 18 -19 19 17 0 30 8 41 23 32 14 -8 18 -5 10 7 -7 12 -2 26 12 31 14 4 19 15 12 23 -7 7 -19 4 -26 -8z"/> <path d="M2920 5020 l0 -100 90 0 c75 0 90 6 90 38 0 20 6 65 13 100 l12 62 -102 0 -103 0 0 -100z"/> <path d="M2611 5078 c-101 -24 -98 -20 -69 -116 53 -177 234 -87 185 93 -6 25 -17 44 -24 43 -7 -1 -48 -10 -92 -20z"/> <path d="M3291 5008 c-15 -98 2 -127 72 -128 19 0 47 -5 63 -11 24 -9 74 111 74 178 0 5 -32 15 -71 22 -40 7 -84 18 -98 23 -18 7 -30 -18 -40 -84z"/> <path d="M5844 5032 c8 -9 5 -35 -6 -56 -18 -34 -16 -37 15 -19 40 20 50 23 97 23 17 0 30 14 30 31 0 29 -3 29 -32 -1 -30 -29 -36 -29 -75 4 -24 19 -37 28 -29 18z"/> <path d="M2225 4968 c-74 -32 -76 -37 -35 -136 35 -84 27 -81 130 -40 68 28 79 40 68 75 -46 147 -51 150 -163 101z"/> <path d="M3664 4946 c-11 -31 -26 -72 -34 -91 -11 -27 2 -42 57 -65 100 -42 109 -39 143 42 40 96 39 101 -25 124 -30 11 -70 26 -88 33 -23 10 -38 -2 -53 -43z"/> <path d="M5903 4858 c-19 -51 -6 -158 20 -158 10 0 12 24 4 53 -11 44 -7 51 20 41 18 -7 33 -5 33 4 0 10 -14 23 -32 30 -18 7 -27 25 -21 42 7 17 7 30 2 30 -6 0 -17 -19 -26 -42z"/> <path d="M1885 4797 c-77 -48 -79 -61 -21 -144 23 -35 45 -66 47 -69 8 -12 147 87 148 106 1 29 -76 150 -94 148 -8 -1 -44 -19 -80 -41z"/> <path d="M3993 4754 l-49 -83 73 -45 c94 -58 92 -58 143 24 49 80 45 91 -49 147 l-69 40 -49 -83z"/> <path d="M1506 4485 c-536 -572 -732 -1305 -545 -2035 75 -290 306 -712 484 -886 l67 -64 64 66 64 66 -62 69 c-683 756 -656 1896 62 2643 l138 143 -54 65 c-72 87 -73 87 -218 -67z"/> <path d="M2895 4575 c-28 -21 -280 -524 -396 -788 -42 -96 1 -83 -529 -167 -471 -74 -463 -73 -511 -121 -88 -88 -64 -125 319 -499 l359 -350 -78 -459 c-85 -507 -84 -534 31 -589 54 -26 66 -24 149 21 50 27 222 120 381 206 160 85 315 170 345 187 54 32 61 29 475 -182 653 -332 652 -333 518 401 l-83 449 353 354 c506 509 503 518 -222 612 l-468 60 -210 410 c-259 504 -305 552 -433 455z m523 -1016 c24 -21 154 -46 394 -76 197 -24 397 -50 445 -56 l86 -12 -331 -334 c-183 -183 -332 -347 -332 -362 0 -26 113 -636 152 -817 l14 -68 -392 203 c-215 112 -413 203 -438 202 -25 0 -221 -98 -436 -218 -214 -119 -392 -215 -395 -213 -2 3 12 94 33 203 64 343 107 665 95 713 -6 25 -155 181 -331 346 -326 306 -343 330 -241 330 145 0 810 123 842 156 29 29 345 680 384 791 10 27 68 -71 214 -360 111 -218 218 -411 237 -428z"/> <path d="M4295 4535 l-50 -65 144 -151 c679 -712 705 -1858 59 -2577 l-94 -105 71 -71 71 -71 121 153 c692 870 653 1999 -97 2817 -141 154 -156 159 -225 70z"/> <path d="M2500 1374 c0 -527 8 -536 333 -397 l179 77 178 -77 c322 -140 330 -129 330 397 l0 386 -101 0 -102 0 7 -320 c3 -176 5 -320 4 -320 -1 0 -72 31 -158 68 -112 49 -169 64 -198 52 -23 -9 -94 -40 -158 -68 -63 -29 -117 -52 -120 -52 -3 0 -2 144 3 320 l8 320 -103 0 -102 0 0 -386z"/> </g> </svg> 