<?xml version="1.0" standalone="no"?>
<!DOCTYPE svg PUBLIC "-//W3C//DTD SVG 20010904//EN"
 "http://www.w3.org/TR/2001/REC-SVG-20010904/DTD/svg10.dtd">
<svg version="1.0" xmlns="http://www.w3.org/2000/svg"
 width="900.000000pt" height="900.000000pt" viewBox="0 0 900.000000 900.000000"
 preserveAspectRatio="xMidYMid meet">
<metadata>
Created by potrace 1.10, written by Peter Selinger 2001-2011
</metadata>
<g transform="translate(0.000000,900.000000) scale(0.100000,-0.100000)"
fill="#ff2969" stroke="none">
<path d="M4379 7634 c-5 -7 -8 -65 -7 -130 l3 -119 126 -3 126 -3 6 53 c4 29
7 88 7 131 l0 77 -57 2 c-130 5 -195 3 -204 -8z"/>
<path d="M3945 7600 c-94 -18 -136 -28 -142 -34 -14 -14 33 -242 51 -249 6 -2
62 5 125 17 l113 20 -6 51 c-4 27 -9 75 -12 105 -9 99 -10 100 -52 99 -20 -1
-55 -5 -77 -9z"/>
<path d="M4955 7600 c-7 -12 -27 -161 -29 -214 l-1 -40 70 -12 c114 -20 175
-27 175 -20 0 4 11 57 26 118 20 91 23 113 12 123 -7 7 -61 22 -120 34 -124
24 -125 24 -133 11z"/>
<path d="M3445 7470 c-11 -4 -45 -18 -75 -30 -108 -43 -130 -54 -130 -66 0
-29 94 -224 108 -224 19 0 194 70 209 84 9 8 3 37 -27 126 -22 63 -40 116 -40
118 0 5 -26 0 -45 -8z"/>
<path d="M5495 7393 c-56 -165 -56 -161 -32 -178 12 -8 25 -15 30 -15 5 0 23
-6 40 -14 128 -59 141 -59 167 -2 11 25 20 47 20 50 0 3 12 31 27 62 19 40 24
61 17 71 -5 9 -39 27 -74 41 -36 14 -78 30 -95 37 -74 31 -71 33 -100 -52z"/>
<path d="M2843 7182 c-135 -83 -132 -79 -87 -143 86 -122 106 -149 115 -149
12 0 153 88 185 115 l23 20 -39 65 c-22 36 -50 84 -61 108 -11 23 -26 42 -32
41 -7 0 -53 -26 -104 -57z"/>
<path d="M5992 7115 c-34 -57 -62 -109 -62 -114 0 -5 7 -11 15 -15 8 -3 53
-30 99 -61 82 -53 108 -60 120 -30 3 8 30 47 60 89 31 41 56 81 56 89 0 19
-189 147 -217 147 -6 0 -38 -47 -71 -105z"/>
<path d="M2404 6856 c-68 -62 -312 -325 -376 -406 -188 -240 -345 -505 -443
-745 -20 -49 -40 -99 -45 -110 -8 -17 -41 -118 -90 -270 -19 -60 -68 -291 -75
-350 -3 -33 -10 -80 -16 -105 -28 -137 -28 -611 1 -795 33 -207 67 -374 97
-470 38 -121 74 -232 83 -250 5 -11 19 -44 30 -74 66 -171 216 -445 343 -624
90 -128 233 -301 304 -369 l39 -38 92 93 92 92 -23 25 c-31 35 -160 182 -172
197 -5 7 -15 18 -21 26 -126 152 -299 442 -392 657 -230 533 -291 1163 -168
1735 21 97 42 184 54 220 5 17 18 57 28 90 10 33 22 64 26 70 4 5 8 16 8 25 1
8 9 33 20 55 11 22 19 43 20 47 0 4 18 46 41 95 23 48 45 97 50 108 5 11 13
27 19 35 5 8 44 74 86 145 106 178 256 376 387 508 20 21 37 44 37 52 0 8 6
18 14 22 27 16 176 156 176 166 0 9 -128 165 -153 185 -10 9 -28 -2 -73 -42z"/>
<path d="M4400 6879 c-14 -6 -43 -22 -64 -37 -35 -24 -52 -53 -139 -232 -181
-376 -205 -424 -255 -530 -240 -507 -261 -548 -285 -553 -12 -3 -60 -11 -107
-17 -46 -6 -88 -14 -92 -16 -3 -2 -53 -11 -110 -19 -99 -14 -171 -26 -378 -60
-52 -9 -135 -22 -185 -30 -49 -7 -133 -20 -185 -29 -52 -8 -126 -20 -164 -26
-135 -20 -185 -38 -232 -82 -47 -44 -64 -85 -64 -156 0 -84 14 -102 250 -327
238 -227 602 -577 704 -677 98 -95 108 -109 103 -135 -5 -25 -32 -190 -58
-348 -22 -132 -40 -245 -54 -335 -15 -103 -59 -374 -69 -430 -24 -132 -34
-239 -25 -284 22 -117 138 -192 255 -166 46 11 93 34 282 139 50 28 94 51 97
51 3 0 23 11 45 25 22 14 49 25 60 25 11 0 20 4 20 9 0 11 43 36 205 121 66
35 125 66 130 70 10 8 30 19 210 115 50 26 116 63 148 82 32 18 66 33 76 33
10 0 130 -57 267 -126 1032 -523 1012 -514 1065 -514 76 0 136 36 169 100 29
58 33 97 16 173 -8 40 -20 101 -26 137 -17 100 -38 220 -49 275 -29 152 -55
289 -66 360 -16 89 -36 198 -60 325 -23 114 -33 180 -34 210 -1 20 102 128
508 535 366 367 512 520 520 544 16 50 13 120 -8 167 -39 85 -125 125 -301
139 -41 3 -113 12 -160 20 -47 8 -146 21 -220 30 -74 9 -146 18 -160 21 -14 2
-74 11 -135 18 -444 55 -541 69 -557 85 -19 17 -60 98 -402 776 -134 265 -240
464 -259 484 -59 62 -157 88 -227 60z m101 -371 c14 -31 370 -734 510 -1007
70 -139 109 -185 170 -201 46 -13 197 -35 374 -55 66 -7 127 -16 135 -19 8 -3
58 -10 110 -16 52 -5 145 -17 205 -25 61 -9 164 -23 230 -31 203 -25 247 -32
257 -42 6 -6 -151 -171 -453 -473 -254 -255 -468 -474 -477 -487 -16 -25 -44
-131 -37 -142 3 -4 11 -50 20 -101 17 -105 35 -203 60 -329 17 -89 38 -203 55
-305 5 -33 14 -82 20 -110 19 -90 63 -329 67 -367 4 -30 2 -38 -11 -38 -14 0
-133 56 -303 143 -51 27 -801 402 -855 429 -41 20 -101 8 -196 -38 -52 -25
-111 -56 -132 -69 -20 -13 -74 -43 -121 -68 -46 -24 -176 -95 -289 -157 -113
-62 -243 -133 -290 -158 -47 -24 -89 -48 -95 -52 -29 -22 -148 -80 -165 -80
-24 0 -25 12 -5 135 9 50 20 122 25 160 5 39 14 93 20 120 10 55 41 243 65
405 9 58 18 116 21 130 3 14 11 68 19 120 8 52 19 115 24 140 27 123 5 184
-108 292 -185 177 -544 522 -641 615 -58 55 -131 126 -164 157 -86 81 -88 80
154 120 52 8 115 18 140 21 25 3 65 10 90 15 25 5 135 23 245 40 110 17 234
37 275 45 41 8 109 19 150 24 163 23 234 45 272 87 14 17 126 242 255 514 23
47 62 130 88 185 41 87 151 317 203 425 44 90 59 99 83 48z"/>
<path d="M6458 6799 c-100 -110 -98 -106 -52 -147 438 -386 757 -916 893
-1483 70 -293 97 -639 71 -925 -16 -176 -63 -427 -107 -569 -30 -98 -65 -200
-78 -230 -8 -16 -26 -59 -40 -95 -113 -277 -316 -587 -542 -829 -29 -31 -53
-61 -53 -66 0 -6 40 -50 89 -99 l89 -89 24 24 c256 262 471 580 621 919 9 19
25 56 36 82 12 26 21 53 21 60 0 8 4 18 9 23 12 13 81 221 81 243 0 10 4 22 9
28 4 5 13 34 20 64 6 30 18 84 26 120 20 84 44 240 56 360 12 119 12 499 0
605 -19 166 -31 243 -52 335 -11 52 -25 118 -31 145 -5 28 -14 54 -19 60 -5 5
-9 17 -9 27 0 26 -68 226 -110 323 -55 128 -69 159 -113 245 -116 225 -281
468 -443 648 -99 111 -295 301 -311 302 -6 0 -45 -36 -85 -81z"/>
<path d="M3754 2621 c-10 -10 -3 -1108 7 -1146 12 -45 49 -88 93 -110 33 -17
108 -20 134 -5 21 11 62 29 177 75 50 19 99 40 110 45 11 5 43 18 70 30 28 12
59 25 70 30 61 27 93 31 131 16 78 -28 140 -53 174 -69 19 -9 76 -32 125 -52
116 -47 156 -64 177 -75 27 -15 104 -12 141 6 35 17 77 69 77 97 0 8 5 19 10
22 6 4 10 205 10 570 0 504 -2 563 -16 569 -9 3 -62 6 -119 6 -57 0 -110 -3
-119 -6 -14 -5 -16 -57 -16 -474 0 -412 -2 -469 -15 -474 -9 -3 -23 -1 -33 4
-21 11 -55 26 -212 90 -69 28 -141 58 -160 67 -19 9 -48 17 -65 16 -26 0 -262
-92 -290 -113 -5 -4 -23 -10 -38 -14 -16 -4 -51 -18 -79 -31 -27 -13 -56 -21
-64 -18 -12 4 -14 76 -14 468 0 390 -2 464 -14 474 -10 9 -51 11 -131 9 -64
-2 -118 -5 -121 -7z"/>
</g>
</svg>
